<?xml version="1.0"?>
<svg xmlns="http://www.w3.org/2000/svg" height="512px" version="1.1" viewBox="-6 0 135 135.73942" width="512px">
<g id="surface1">
<path d="M 80.398438 52.964844 L 80.398438 12.765625 L 80.65625 12.765625 C 84.183594 12.609375 86.914062 9.625 86.761719 6.101562 C 86.617188 2.792969 83.964844 0.144531 80.65625 0 L 42.902344 0 C 39.382812 0.15625 36.648438 3.136719 36.804688 6.664062 C 36.949219 9.972656 39.59375 12.625 42.902344 12.765625 L 43.175781 12.765625 L 43.175781 52.964844 L 19.605469 90.832031 L 3.027344 117.476562 C 0.101562 122.175781 -0.429688 126.71875 1.539062 130.257812 C 3.515625 133.792969 7.644531 135.738281 13.179688 135.738281 L 110.398438 135.738281 C 115.945312 135.738281 120.074219 133.792969 122.035156 130.257812 C 123.996094 126.71875 123.472656 122.175781 120.546875 117.476562 Z M 42.902344 9.042969 C 41.433594 8.945312 40.324219 7.671875 40.425781 6.203125 C 40.515625 4.875 41.574219 3.8125 42.902344 3.722656 L 80.671875 3.722656 C 82.140625 3.824219 83.25 5.09375 83.148438 6.566406 C 83.058594 7.894531 82 8.957031 80.671875 9.042969 Z M 76.675781 12.765625 L 76.675781 16.675781 L 46.902344 16.675781 L 46.902344 12.765625 Z M 46.613281 54.511719 C 46.800781 54.21875 46.898438 53.878906 46.902344 53.535156 L 46.902344 20.398438 L 76.675781 20.398438 L 76.675781 53.519531 C 76.675781 53.871094 76.773438 54.207031 76.960938 54.503906 L 98.414062 88.941406 C 93.210938 91.421875 77.199219 97.625 62.644531 90.183594 C 48.710938 83.039062 33.363281 85.976562 25.570312 88.308594 Z M 118.785156 128.417969 C 117.542969 130.730469 114.527344 131.992188 110.398438 131.992188 L 13.179688 131.992188 C 9.046875 131.992188 6.070312 130.753906 4.792969 128.417969 C 3.515625 126.089844 4.011719 122.921875 6.195312 119.414062 L 22.449219 93.359375 C 25.761719 92.042969 44.777344 85.207031 60.90625 93.519531 C 66.214844 96.207031 72.089844 97.582031 78.039062 97.527344 C 85.789062 97.398438 93.410156 95.566406 100.371094 92.167969 L 117.355469 119.460938 C 119.5625 122.910156 120.097656 126.160156 118.785156 128.410156 Z M 118.785156 128.417969 " style=" fill-rule:nonzero;fill-opacity:1;" stroke="#FFFFFF" fill="#FFFFFF"/>
</g>
</svg>
