<?xml version="1.0"?>
<svg xmlns="http://www.w3.org/2000/svg" height="512px" viewBox="0 -40 448 448" width="512px"><path d="m40 272h16v96h-16zm0 0" fill="#80878c"/><path d="m40 0h16v16h-16zm0 0" fill="#80878c"/><path d="m16 32h416v48h-416zm0 0" fill="#80878c"/><path d="m392 272h16v96h-16zm0 0" fill="#80878c"/><path d="m0 240h448v16h-448zm0 0" fill="#80878c"/><path d="m40 192h16v32h-16zm0 0" fill="#80878c"/><path d="m392 0h16v16h-16zm0 0" fill="#80878c"/><path d="m40 96h16v16h-16zm0 0" fill="#80878c"/><path d="m392 96h16v16h-16zm0 0" fill="#80878c"/><path d="m16 128h416v48h-416zm0 0" fill="#80878c"/><path d="m392 192h16v32h-16zm0 0" fill="#80878c"/></svg>
