<?xml version="1.0"?>
<svg xmlns="http://www.w3.org/2000/svg" height="512px" version="1.1" viewBox="-8 0 133 133.17746" width="512px">
<g id="surface1">
<path d="M 81.480469 4.4375 C 81.480469 2.007812 79.535156 0.0351562 77.109375 0 L 39.925781 0 C 37.472656 0 35.492188 1.984375 35.492188 4.4375 C 35.492188 6.890625 37.472656 8.871094 39.925781 8.871094 C 39.925781 8.871094 39.925781 8.871094 39.929688 8.871094 L 77.109375 8.871094 C 79.535156 8.839844 81.480469 6.863281 81.480469 4.4375 Z M 81.480469 4.4375 " style=" fill-rule:nonzero;fill-opacity:1;" stroke="#FFFFFF" fill="#FFFFFF"/>
<path d="M 98.023438 91.375 C 90.789062 95.226562 82.75 97.304688 74.550781 97.449219 C 68.710938 97.5 62.945312 96.148438 57.734375 93.507812 C 40.386719 84.582031 19.664062 93.507812 19.453125 93.507812 L 19.265625 93.566406 L 17.234375 94.199219 L 2.410156 118.046875 C -2.769531 126.375 1.011719 133.175781 10.816406 133.175781 L 106.242188 133.175781 C 116.046875 133.175781 119.875 126.359375 114.648438 118.046875 Z M 98.023438 91.375 " style=" fill-rule:nonzero;fill-opacity:1;" stroke="#FFFFFF" fill="#FFFFFF"/>
<path d="M 42.070312 12.527344 L 74.949219 12.527344 L 74.949219 18.191406 L 42.070312 18.191406 Z M 42.070312 12.527344 " style=" fill-rule:nonzero;fill-opacity:1;" stroke="#FFFFFF" fill="#FFFFFF"/>
<path d="M 59.347656 90.308594 C 75.992188 98.8125 94.457031 89.15625 96.054688 88.3125 L 74.964844 54.355469 L 74.964844 21.847656 L 42.070312 21.847656 L 42.070312 54.355469 L 20.273438 89.367188 C 26.480469 87.160156 43.804688 82.339844 59.347656 90.308594 Z M 59.347656 90.308594 " style=" fill-rule:nonzero;fill-opacity:1;" stroke="#FFFFFF" fill="#FFFFFF"/>
</g>
</svg>
