<svg height="512pt" viewBox="0 0 512 512" width="512pt" xmlns="http://www.w3.org/2000/svg"><path d="m406 0c-28.878906 0-55.738281 14.613281-75.640625 41.148438-18.933594 25.242187-29.359375 58.574218-29.359375 93.851562 0 52.976562 23.765625 101.019531 60 123.101562v42.898438h30v121h-61.507812c-6.96875-34.191406-37.273438-60-73.492188-60s-66.523438 25.808594-73.492188 60h-62.507812v-121h76c41.355469 0 75-33.644531 75-75v-166c0-33.085938-26.914062-60-60-60h-151c-33.085938 0-60 26.914062-60 60v166c0 41.355469 33.644531 75 75 75h15v151h92.507812c6.96875 34.191406 37.273438 60 73.492188 60s66.523438-25.808594 73.492188-60h91.507812v-151h30v-42.878906c36.839844-22.273438 61-70.34375 61-123.121094 0-38.03125-12.410156-72.441406-32.347656-97-19.085938-23.511719-45.066406-38-73.652344-38zm-210 271h-106v-151h121c10.925781 0 21.167969-2.949219 30-8.070312v114.070312c0 24.8125-20.1875 45-45 45zm-136-241h151c16.542969 0 30 13.457031 30 30s-13.457031 30-30 30h-151c-16.542969 0-30-13.457031-30-30s13.457031-30 30-30zm-30 196v-114.070312c8.832031 5.121093 19.074219 8.070312 30 8.070312v148.421875c-17.460938-6.195313-30-22.867187-30-42.421875zm226 256c-24.8125 0-45-20.1875-45-45 0-19.554688 12.539062-36.226562 30-42.421875v57.421875h30v-57.421875c17.460938 6.195313 30 22.867187 30 42.421875 0 24.8125-20.1875 45-45 45zm173.605469-246.398438-8.605469 4.058594v31.339844h-30v-31.339844l-8.605469-4.058594c-30.261719-14.257812-51.394531-55.628906-51.394531-100.601562 0-28.828125 8.296875-55.769531 23.359375-75.851562 14.097656-18.796876 32.4375-29.148438 51.640625-29.148438 19.308594 0 37.851562 10.382812 52.207031 29.234375 15.34375 20.148437 23.792969 47.054687 23.792969 75.765625 0 44.695312-21.546875 86.066406-52.394531 100.601562zm0 0"/><path d="m135 186.214844-21.214844-21.210938 21.214844-21.214844 21.210938 21.214844zm0 0"/></svg>