<?xml version="1.0" encoding="iso-8859-1"?>
<!-- Generator: Adobe Illustrator 19.0.0, SVG Export Plug-In . SVG Version: 6.00 Build 0)  -->
<svg xmlns="http://www.w3.org/2000/svg" xmlns:xlink="http://www.w3.org/1999/xlink" version="1.1" id="Capa_1" x="0px" y="0px" viewBox="0 0 512 512" style="enable-background:new 0 0 512 512;" xml:space="preserve" width="512px" height="512px">
<g>
	<g>
		<path d="M480.282,236.513H220.377c-3.661,0-6.628,2.968-6.628,6.628v89.137c-3.494-25.773-20.226-49.07-45.966-59.645    c-18.634-7.657-39.139-7.582-57.722,0.211c-18.641,7.818-33.205,23.027-40.886,41.724l-9.994,24.325    c-1.394,3.395,0.234,7.276,3.634,8.659l127.177,51.719c3.382,1.375,7.24-0.243,8.628-3.621l10.183-24.784    c2.466-6.002,4.096-12.142,4.946-18.291v40.148c0,3.661,2.968,6.628,6.628,6.628h259.905c3.661,0,6.628-2.968,6.628-6.628V243.141    C486.91,239.48,483.944,236.513,480.282,236.513z M418.415,382.023H281.181c-8.287,0-15.005-6.718-15.005-15.005    s6.718-15.005,15.005-15.005h137.233c8.287,0,15.005,6.718,15.005,15.005S426.701,382.023,418.415,382.023z M418.415,333.64    H281.181c-8.287,0-15.005-6.718-15.005-15.005s6.718-15.005,15.005-15.005h137.233c8.287,0,15.005,6.718,15.005,15.005    S426.701,333.64,418.415,333.64z M418.415,284.024H281.181c-8.287,0-15.005-6.718-15.005-15.005s6.718-15.005,15.005-15.005    h137.233c8.287,0,15.005,6.718,15.005,15.005S426.701,284.024,418.415,284.024z" fill="#FFFFFF"/>
	</g>
</g>
<g>
	<g>
		<path d="M434.434,121.747l-1.734-0.024c-4.235-0.06-7.844-3.094-8.63-7.256l-2.479-13.132h2.099    c12.299,0,22.305-10.006,22.305-22.305V22.305C445.996,10.006,435.989,0,423.69,0H276.968c-12.299,0-22.305,10.006-22.305,22.305    v56.724c0,12.299,10.006,22.305,22.305,22.305h1.198l-2.378,12.813c-0.783,4.221-4.466,7.283-8.76,7.283    c-0.015-0.001-0.035,0-0.055,0c-14.042,0-27.259,5.403-37.269,15.227c-10.385,10.191-15.958,24.318-15.958,38.868v24.35    c0,3.661,2.968,6.628,6.628,6.628H480.28c3.661,0,6.628-2.968,6.628-6.628V174.97C486.91,146.104,463.296,122.154,434.434,121.747    z" fill="#FFFFFF"/>
	</g>
</g>
<g>
	<g>
		<path d="M480.282,429.361H220.377c-3.661,0-6.628,2.968-6.628,6.628v22.178c0,29.397,23.831,53.228,53.228,53.228h166.707    c29.397,0,53.228-23.831,53.228-53.228v-22.178C486.91,432.328,483.944,429.361,480.282,429.361z" fill="#FFFFFF"/>
	</g>
</g>
<g>
	<g>
		<path d="M178.542,427.01L51.365,375.291c-3.382-1.375-7.24,0.243-8.628,3.621l-12,29.206    c-15.774,38.392,2.628,82.459,41.02,98.233c9.33,3.834,18.996,5.649,28.51,5.649c29.629,0,57.782-17.608,69.722-46.668    l12.188-29.663C183.572,432.275,181.942,428.393,178.542,427.01z" fill="#FFFFFF"/>
	</g>
</g>
<g>
</g>
<g>
</g>
<g>
</g>
<g>
</g>
<g>
</g>
<g>
</g>
<g>
</g>
<g>
</g>
<g>
</g>
<g>
</g>
<g>
</g>
<g>
</g>
<g>
</g>
<g>
</g>
<g>
</g>
</svg>
